<svg width="519" height="256" viewBox="0 0 519 256" fill="none" xmlns="http://www.w3.org/2000/svg">
<path d="M90.7176 255.74C83.8987 255.74 79.0553 252.132 76.1877 244.915C73.4964 237.703 72.1507 226.156 72.1507 210.276C72.0317 187.617 75.3895 165.073 82.107 143.432C83.7147 138.201 86.3153 134.421 89.9087 132.092C93.6735 129.572 98.8771 128.312 105.52 128.312C109.103 128.312 111.623 128.764 113.079 129.666C114.516 130.573 115.234 132.281 115.234 134.806C115.234 137.694 113.888 144.191 111.197 154.296C109.403 161.513 107.969 167.828 106.896 173.24C105.651 179.864 104.753 186.549 104.204 193.266C110.121 177.749 116.759 165.119 124.117 155.377C131.475 145.634 138.652 138.69 145.647 134.542C152.819 130.394 159.371 128.318 165.303 128.312C176.97 128.312 182.801 134.176 182.796 145.904C182.796 152.96 180.823 165.681 176.877 184.066C173.47 199.76 171.766 210.132 171.766 215.182C171.766 222.399 174.367 226.008 179.568 226.008C183.161 226.008 187.377 223.843 192.215 219.514C197.255 215.008 203.893 207.791 212.128 197.863C214.285 195.343 216.707 194.083 219.393 194.083C220.505 194.062 221.601 194.357 222.553 194.932C223.505 195.507 224.276 196.34 224.775 197.333C226.212 199.496 226.93 202.472 226.93 206.262C226.93 213.484 225.227 219.078 221.82 223.044C214.671 232.072 206.238 240.003 196.789 246.586C188 252.724 177.953 255.791 166.648 255.786C157.501 255.786 150.594 253.17 145.927 247.939C141.265 242.526 138.934 234.767 138.934 224.662C138.934 219.622 140.194 210.603 142.714 197.606C145.052 186.236 146.219 178.386 146.214 174.057C146.214 171.169 145.226 169.725 143.251 169.725C140.922 169.725 137.603 172.794 133.294 178.933C129.167 184.885 124.863 192.823 120.382 202.746C115.998 212.892 112.485 223.393 109.882 234.135C107.906 242.617 105.575 248.39 102.889 251.454C100.349 254.312 96.2917 255.74 90.7176 255.74ZM357.972 194.037C359.084 194.018 360.179 194.313 361.131 194.888C362.083 195.463 362.854 196.295 363.354 197.288C364.78 199.45 365.496 202.426 365.501 206.216C365.501 213.438 363.798 219.033 360.391 222.999C353.334 231.738 345.206 239.556 336.199 246.268C327.41 252.583 318.709 255.74 310.095 255.74C296.488 255.74 286.083 247.712 278.881 231.655C271.321 241.231 264.684 247.636 258.968 250.872C253.425 254.113 246.873 255.735 239.313 255.74C228.366 255.74 219.307 251.681 212.136 243.562C205.135 235.261 201.635 224.526 201.635 211.357C201.508 197.469 204.644 183.745 210.79 171.29C216.519 159.288 225.112 148.88 235.813 140.983C246.348 133.133 258.806 128.27 271.873 126.906C275.285 91.9146 281.744 62.0609 291.249 37.3454C300.94 12.4485 313.591 0 329.199 0C336.91 0 343.278 3.52791 348.303 10.5837C353.504 17.6395 356.107 28.2837 356.112 42.5163C356.112 62.7262 351.178 86.3606 341.31 113.42C331.442 140.479 318.255 168.253 301.749 196.744C302.47 207.201 303.995 214.698 306.323 219.234C308.843 223.77 311.983 226.038 315.743 226.038C320.586 226.038 325.52 223.873 330.545 219.544C335.569 215.215 342.298 207.998 350.729 197.893C352.876 195.323 355.298 194.037 357.994 194.037H357.972ZM328.488 26.5198C325.076 26.5198 321.667 32.6533 318.26 44.9203C314.853 57.016 311.895 72.8916 309.385 92.5471C307.051 112.203 305.345 132.77 304.267 154.25C324.361 110.227 334.408 74.8647 334.408 48.1635C334.408 41.3042 333.78 35.9821 332.525 32.1972C331.462 28.4173 330.121 26.5248 328.504 26.5198H328.488ZM248.717 228.412C252.124 228.412 255.534 227.059 258.946 224.352C262.368 221.444 266.677 216.21 271.873 208.65C269.99 197.84 269.089 186.882 269.182 175.909C269.182 171.58 269.363 164.542 269.726 154.794C259.853 157.864 251.6 164.542 244.968 174.828C238.509 184.916 235.14 196.673 235.276 208.65C235.276 221.83 239.757 228.417 248.717 228.412ZM383.425 110.418C375.866 110.418 370.213 108.702 366.469 105.27C362.704 101.662 360.822 96.7024 360.822 90.3925C360.765 87.396 361.389 84.4258 362.648 81.7058C363.906 78.9858 365.766 76.5872 368.087 74.6908C373.126 70.3666 379.315 68.202 386.653 68.1969C393.291 68.1969 398.674 69.8198 402.801 73.0655C406.929 76.3111 408.99 80.9125 408.985 86.8697C408.985 94.0867 406.652 99.8599 401.985 104.189C397.328 108.342 391.141 110.418 383.425 110.418ZM381.271 255.74C369.609 255.74 361.086 251.59 355.704 243.289C350.503 234.999 347.902 223.994 347.902 210.276C347.902 202.157 348.89 191.782 350.865 179.152C352.844 167.096 355.537 155.168 358.932 143.432C360.549 137.656 362.704 133.693 365.395 131.54C368.087 129.388 372.393 128.305 378.315 128.29C387.462 128.29 392.036 131.357 392.036 137.49C392.036 142.026 390.333 152.491 386.926 168.886C382.617 188.733 380.462 202.174 380.462 209.21C380.462 214.623 381.18 218.773 382.617 221.661C384.053 224.549 386.475 225.99 389.882 225.985C393.107 225.985 397.139 223.717 401.977 219.181C406.815 214.645 413.274 207.519 421.353 197.802C423.505 195.282 425.927 194.022 428.618 194.022C429.73 194.002 430.826 194.296 431.778 194.871C432.73 195.447 433.501 196.279 434.001 197.273C435.437 199.435 436.155 202.411 436.155 206.201C436.155 213.423 434.452 219.017 431.045 222.984C413.314 244.822 396.723 255.74 381.271 255.74ZM510.74 202.157C511.852 202.137 512.947 202.432 513.899 203.007C514.852 203.582 515.622 204.414 516.123 205.407C517.559 207.569 518.277 210.545 518.277 214.335C518.277 220.832 516.75 226.426 513.696 231.118C508.762 238.805 501.895 245.062 493.783 249.262C485.72 253.596 476.033 255.761 464.724 255.756C447.497 255.756 434.142 250.615 424.657 240.334C415.126 229.856 410.361 215.767 410.361 198.067C410.259 186.074 412.929 174.219 418.163 163.428C423.364 152.602 430.541 144.034 439.693 137.724C448.974 131.424 459.963 128.118 471.18 128.252C481.587 128.252 489.93 131.409 496.21 137.724C502.485 143.863 505.625 152.252 505.63 162.891C505.63 175.339 501.144 186.074 492.173 195.096C483.384 203.956 468.312 210.994 446.958 216.21C451.267 224.506 458.535 228.654 468.76 228.654C476.114 228.654 482.124 226.94 486.791 223.513C491.629 220.091 497.19 214.318 503.475 206.194C505.632 203.502 508.054 202.157 510.74 202.157ZM466.606 154.794C459.968 154.794 454.316 158.675 449.649 166.437C445.169 174.193 442.926 183.575 442.921 194.582V195.118C453.505 192.598 461.848 188.819 467.952 183.779C474.055 178.739 477.104 172.875 477.099 166.187C477.099 162.76 476.114 160.054 474.143 158.068C472.344 155.891 469.831 154.799 466.606 154.794ZM35.5311 110.66C27.9713 110.66 22.319 108.947 18.5744 105.52C14.8096 101.911 12.9273 96.9494 12.9273 90.6344C12.87 87.6397 13.4935 84.6712 14.7507 81.9525C16.0078 79.2339 17.8659 76.8362 20.1847 74.9403C25.2245 70.611 31.4135 68.4464 38.7515 68.4464C45.389 68.4464 50.7716 70.0693 54.8993 73.3149C59.0269 76.5606 61.0907 81.162 61.0907 87.1191C61.0907 94.3312 58.7573 100.104 54.0904 104.439C49.4234 108.591 43.237 110.665 35.5311 110.66ZM33.369 255.99C21.7117 255.672 13.1843 251.84 7.80171 243.539C2.60057 235.238 0 224.234 0 210.525C0 202.406 0.987814 192.031 2.96344 179.402C4.94076 167.343 7.63429 155.413 11.0297 143.674C12.6475 137.903 14.8021 133.934 17.4934 131.767C20.1847 129.6 24.4912 128.517 30.4131 128.517C39.5604 128.517 44.1341 131.583 44.1341 137.717C44.1341 142.253 42.4306 152.715 39.0237 169.105C34.7146 188.962 32.5601 202.396 32.5601 209.406C32.5601 214.819 33.2782 218.97 34.7146 221.857C36.151 224.745 38.5726 226.189 41.9796 226.189C45.2051 226.189 49.237 223.934 54.0752 219.423C58.9211 214.887 69.5577 201.665 77.6316 191.921C79.7886 189.401 82.2103 188.141 84.8965 188.141C86.0089 188.12 87.1043 188.415 88.0566 188.99C89.0089 189.565 89.7793 190.398 90.2791 191.391C91.7155 193.554 92.4337 196.53 92.4337 200.32C92.4337 207.542 90.7302 213.136 87.3232 217.102C69.5502 238.95 51.6863 256.481 33.369 255.99Z" fill="#5631C1"/>
</svg>
